<svg id="Laag_1" data-name="Laag 1" xmlns="http://www.w3.org/2000/svg" xmlns:xlink="http://www.w3.org/1999/xlink" viewBox="0 0 524.92 524.92"><defs><style>.cls-1{fill:none;}.cls-2{fill:#8ab623;}.cls-3{clip-path:url(#clip-path);}.cls-4{fill:#fff;}</style><clipPath id="clip-path" transform="translate(-3.73 -3.73)"><rect class="cls-1" width="532.37" height="532.38"/></clipPath></defs><title>logo-group-ap</title><rect class="cls-2" x="0.32" y="0.3" width="524.31" height="524.31"/><g class="cls-3"><path class="cls-4" d="M528.65,528.66H3.73V3.73H528.65ZM4.36,528H528V4.36H4.36Z" transform="translate(-3.73 -3.73)"/><path class="cls-4" d="M71.57,139.59v-3.91c0-36.87,15.66-56,38.17-56A34.92,34.92,0,0,1,124.91,83v20.73c-4.89-2.93-9.29-4.9-14.51-4.9-11.41,0-18.6,11.42-18.6,36v5.56c0,29.85,8.8,36.71,17,36.71a7.45,7.45,0,0,0,1.8-.18V147.76h-9.79V130h27.9v60.68c-7.19,3.11-13.05,4.9-20.72,4.9-19.9,0-36.38-16.15-36.38-56" transform="translate(-3.73 -3.73)"/><path class="cls-4" d="M176.79,137c8.65,0,15-5.06,15-18.44v-1.3c0-14.35-6.87-18.11-15.5-18.11h-.5V137ZM155.91,80.54h20.55c20.39,0,35.24,10.77,35.24,36.38v1.47c0,14.85-5.87,24.31-13.37,30l15.33,46.33H192.45l-12.88-39.82H175.8v39.82h-19.9Z" transform="translate(-3.73 -3.73)"/><path class="cls-4" d="M275.65,140.57v-5.88c0-29.35-4.08-37.51-10.11-37.51s-10.11,8.16-10.11,37.51v5.88c0,29.36,4.08,37.52,10.11,37.52s10.11-8.16,10.11-37.52m-40.46,0v-5.88c0-37.67,12.23-55.78,30.35-55.78S295.89,97,295.89,134.69v5.88c0,37.69-12.25,55.8-30.35,55.8s-30.35-18.11-30.35-55.8" transform="translate(-3.73 -3.73)"/><path class="cls-4" d="M321.64,161.45V80.54h19.75v82.88c0,10.26,3.58,14.35,8.65,14.35s8.65-4.09,8.65-14.35V80.54h19.73v80.91c0,24-12.07,34.75-28.37,34.75s-28.4-10.77-28.4-34.75" transform="translate(-3.73 -3.73)"/><path class="cls-4" d="M426.22,140.41c8.32-.49,14.69-6.52,14.69-20.39v-.31c0-14.54-5.55-20.72-14.2-20.72h-.64v41.42ZM406.16,80.54h17.77c21.69,0,36.87,11.74,36.87,38.5v.33c0,25.78-14.36,38-34.59,39.48h-.15v35.89h-19.9Z" transform="translate(-3.73 -3.73)"/></g><path class="cls-4" d="M200.09,357.89l-30.35-74.07L139.4,357.89ZM147.23,223.46h46.33l97.88,230H238.9L218,402.26H121.46l-20.88,51.21H49.36Z" transform="translate(-3.73 -3.73)"/><g class="cls-3"><path class="cls-4" d="M392.33,340.27c25.12,0,39.8-15,39.8-34.59V305c0-22.51-15.67-34.59-40.78-34.59H352.52v69.83Zm-90-115.18h93.31c54.49,0,87.44,32.31,87.44,79v.65c0,52.86-41.11,80.26-92.34,80.26H352.52v68.5H302.28Z" transform="translate(-3.73 -3.73)"/></g></svg>