<?xml version="1.0" standalone="no"?>
<!DOCTYPE svg PUBLIC "-//W3C//DTD SVG 20010904//EN"
 "http://www.w3.org/TR/2001/REC-SVG-20010904/DTD/svg10.dtd">
<svg version="1.0" xmlns="http://www.w3.org/2000/svg"
 width="512.000000pt" height="512.000000pt" viewBox="0 0 512.000000 512.000000"
 preserveAspectRatio="xMidYMid meet">
<metadata>
Created by potrace 1.11, written by Peter Selinger 2001-2013
</metadata>
<g transform="translate(0.000000,512.000000) scale(0.100000,-0.100000)"
fill="#000000" stroke="none">
<path d="M2375 5039 c-55 -4 -145 -15 -200 -24 -97 -15 -301 -62 -318 -72 -5
-3 13 -28 40 -57 420 -437 737 -1082 842 -1711 24 -144 41 -304 41 -390 0 -46
4 -66 18 -78 46 -42 332 -168 499 -221 202 -63 508 -124 528 -105 15 15 13
512 -3 644 -89 744 -384 1387 -869 1893 l-108 113 -130 9 c-147 11 -198 10
-340 -1z"/>
<path d="M3400 4884 c0 -3 33 -51 73 -107 345 -483 558 -1020 641 -1623 26
-184 38 -472 28 -639 -4 -82 -6 -154 -4 -159 7 -13 256 1 416 25 154 22 269
47 394 85 107 32 107 31 92 237 -37 544 -214 1000 -549 1414 -93 115 -283 304
-394 391 -169 133 -397 267 -589 346 -85 35 -108 42 -108 30z"/>
<path d="M1265 4679 c-307 -186 -577 -448 -778 -751 -213 -321 -341 -663 -393
-1048 -22 -162 -22 -472 0 -629 17 -122 29 -151 45 -109 93 246 319 626 517
872 307 381 728 723 1166 946 64 33 119 64 123 69 7 12 -160 262 -245 366 -62
78 -318 345 -330 345 -3 0 -51 -27 -105 -61z"/>
<path d="M1955 3681 c-802 -417 -1402 -1141 -1642 -1978 l-35 -123 22 -56 c31
-75 149 -280 219 -379 103 -148 309 -381 330 -374 6 2 31 64 56 136 238 699
701 1305 1303 1703 l112 74 0 43 c0 157 -54 488 -112 691 -29 103 -104 309
-117 324 -3 4 -65 -23 -136 -61z"/>
<path d="M2468 2221 c-150 -101 -298 -223 -430 -355 -101 -101 -268 -293 -268
-308 0 -3 37 -30 83 -60 402 -268 857 -441 1367 -520 196 -30 667 -33 855 -5
149 22 296 51 398 79 l79 22 80 120 c96 145 221 398 276 556 42 123 67 218 60
226 -3 2 -72 -9 -154 -25 -257 -52 -384 -64 -659 -64 -267 0 -385 11 -629 59
-286 56 -597 164 -867 300 l-88 44 -103 -69z"/>
<path d="M1566 1252 c-101 -160 -265 -591 -291 -765 -7 -45 -7 -46 36 -73 95
-60 328 -165 472 -213 454 -151 925 -168 1387 -51 215 54 427 140 619 250 157
90 375 249 361 263 -3 3 -68 -1 -145 -9 -196 -22 -636 -14 -825 15 -538 80
-1038 265 -1470 545 -52 34 -100 65 -107 69 -8 5 -21 -6 -37 -31z"/>
</g>
</svg>
